<svg style="transform: scale(.9);" t="1587745104908" class="icon" viewBox="0 0 1024 1024" version="1.1" xmlns="http://www.w3.org/2000/svg" p-id="22806" width="500" height="500"><path d="M46.545455 609.954909c0-26.903273 22.039273-48.989091 48.98909-48.989091h832.93091c26.949818 0 48.989091 22.085818 48.98909 48.989091v294.004364a49.105455 49.105455 0 0 1-48.98909 48.989091H95.534545A49.105455 49.105455 0 0 1 46.545455 903.959273V609.954909z m48.98909-146.967273h832.93091a49.105455 49.105455 0 0 0 48.965818-48.989091V120.017455a49.105455 49.105455 0 0 0-48.965818-48.989091H95.534545A49.152 49.152 0 0 0 46.545455 120.017455v293.98109a49.105455 49.105455 0 0 0 48.98909 48.989091z" p-id="22807" fill="#555d66"></path></svg>