<svg t="1587745584674" class="icon" viewBox="0 0 1028 1024" version="1.1" xmlns="http://www.w3.org/2000/svg" p-id="29958" width="500" height="500"><path d="M316.806387 841.06986q0-9.197605 9.197605-9.197605t9.197605 9.197605-9.197605 9.197605-9.197605-9.197605zM274.906188 830.850299q0-9.197605 9.197605-9.197605 10.219561 0 10.219561 9.197605 0 10.219561-10.219561 10.219561-9.197605 0-9.197605-10.219561zM509.956088 0q106.283433 0 199.792415 40.367265t163.001996 109.860279 109.860279 163.001996 40.367265 199.792415q0 82.778443-25.037924 158.914172t-69.493014 138.986028-106.794411 110.371257-135.92016 74.091816q-11.241517 2.043912-25.548902 1.021956t-17.373253-18.39521q-2.043912-12.263473-3.576846-32.702595t-2.043912-41.9002-1.021956-40.878244-0.510978-28.61477-3.576846-23.50499-8.175649-27.592814-9.197605-24.015968-6.642715-13.796407q-2.043912-2.043912 14.307385-4.598802t41.389222-9.708583 54.674651-20.439122 55.185629-35.257485 42.411178-54.163673 16.862275-78.179641q0-69.493014-8.175649-108.327345t-17.373253-58.251497q-11.241517-22.483034-25.548902-28.61477 6.131737-33.724551 9.197605-61.317365 2.043912-23.50499 0.510978-44.966068t-12.774451-27.592814q-11.241517-5.10978-33.213573 2.043912t-45.477046 18.39521q-26.570858 13.285429-57.229541 32.702595-15.329341-5.10978-33.724551-9.197605-16.351297-4.087824-38.834331-7.153693t-50.075848-3.065868-52.630739 3.065868-44.45509 6.131737q-22.483034 4.087824-41.9002 9.197605-30.658683-17.373253-57.229541-29.636727-23.50499-11.241517-45.988024-18.39521t-32.702595-3.065868q-11.241517 5.10978-13.796407 26.05988t-1.532934 45.477046q1.021956 28.61477 5.10978 63.361277-14.307385 15.329341-25.548902 36.790419-10.219561 18.39521-17.884232 44.966068t-7.664671 59.273453q0 47.00998 9.708583 82.778443t26.05988 61.828343 37.301397 43.944112 42.411178 29.125749q51.097804 26.570858 116.502994 30.658683-8.175649 9.197605-14.307385 17.373253-5.10978 7.153693-9.197605 13.796407t-4.087824 9.708583-0.510978 7.664671-1.532934 9.708583l-2.043912 10.219561q-10.219561 4.087824-21.461078 7.153693-9.197605 3.065868-20.439122 5.10978t-22.483034 2.043912-27.592814-11.752495-33.213573-27.081836-30.658683-30.147705-19.928144-20.9501q-6.131737-5.10978-16.351297-8.686627t-20.439122-5.620758-18.39521-2.55489-11.241517 0.510978q-6.131737 3.065868-9.197605 8.686627t5.10978 8.686627q4.087824 2.043912 11.752495 7.664671t15.840319 13.285429 15.329341 15.329341 10.219561 12.774451 9.197605 22.483034 19.928144 35.768463 36.790419 32.702595 61.828343 14.307385q26.570858 0 40.367265-0.510978t20.9501-1.532934l0 78.690619q0 6.131737-1.532934 13.796407t-5.620758 13.285429-11.241517 8.175649-18.39521-0.510978q-2.043912-1.021956-6.131737-1.021956-74.602794-26.570858-136.942116-74.091816t-107.816367-110.882236-71.025948-139.497006-25.548902-159.936128q0-106.283433 40.367265-199.792415t109.860279-163.001996 163.512974-109.860279 200.303393-40.367265zM380.167665 878.882236q4.087824 1.021956 6.131737 2.043912 5.10978 3.065868-6.131737 4.087824l0-6.131737zM359.728543 833.916168q0-10.219561 9.197605-10.219561t9.197605 10.219561q0 9.197605-9.197605 9.197605t-9.197605-9.197605zM177.820359 731.720559q0-6.131737 7.153693-6.131737t7.153693 6.131737q0 7.153693-7.153693 7.153693t-7.153693-7.153693zM246.291417 809.389222q0-9.197605 9.197605-9.197605t9.197605 9.197605q0 10.219561-9.197605 10.219561t-9.197605-10.219561zM207.457086 747.0499q7.153693 0 7.153693 7.153693t-7.153693 7.153693-7.153693-7.153693 7.153693-7.153693zM217.676647 780.774451q0-9.197605 9.197605-9.197605t9.197605 9.197605q0 10.219561-9.197605 10.219561t-9.197605-10.219561z" p-id="29959" fill="#555d66"></path></svg>