<svg style="transform: scale(.9);" t="1587742322824" class="icon" viewBox="0 0 1024 1024" version="1.1" xmlns="http://www.w3.org/2000/svg" p-id="1141" width="22" height="22"><path d="M939.133124 79.047334c-10.438747-10.526751-24.586978-16.449647-39.343053-16.449647l-338.631464 0.022513c-14.748912 0-28.904307 5.900384-39.33589 16.434298L81.44801 523.464099c-10.43056 10.534937-16.292058 24.812105-16.292058 39.70428s5.861498 29.170366 16.292058 39.697117l338.624301 341.745385c10.868535 10.961656 25.105794 16.449647 39.343053 16.449647 14.244422 0 28.481681-5.487991 39.33589-16.449647L939.133124 500.186953c10.43056-10.534937 16.299221-24.812105 16.299221-39.712467L955.432345 118.751614C955.432345 103.859439 949.563684 89.581248 939.133124 79.047334zM695.768397 436.956863c-61.458747 0-111.284549-50.284243-111.284549-112.307855s49.825802-112.307855 111.284549-112.307855 111.284549 50.284243 111.284549 112.307855S757.227144 436.956863 695.768397 436.956863z" p-id="1142" fill="#555d66"></path></svg>