<svg t="1587745389064" class="icon" viewBox="0 0 1024 1024" version="1.1" xmlns="http://www.w3.org/2000/svg" p-id="24180" width="500" height="500"><path d="M163.2 2.2c88.9 0 161 72.1 161 161s-72.1 161-161 161-161-72.1-161-161c0.1-88.9 72.1-161 161-161z m0 107.4c-19.2 0-36.9 10.2-46.5 26.8-9.6 16.6-9.6 37.1 0 53.7s27.3 26.8 46.5 26.8c29.6 0 53.7-24 53.7-53.7 0-29.6-24-53.6-53.7-53.6z m0 429.2c88.9 0 161 72.1 161 161s-72.1 161-161 161-161-72.1-161-161 72.1-161 161-161z m0 107.3c-19.2 0-36.9 10.2-46.5 26.8-9.6 16.6-9.6 37.1 0 53.7s27.3 26.8 46.5 26.8c29.6 0 53.7-24 53.7-53.7 0-29.5-24-53.6-53.7-53.6z m0 0" p-id="24181" fill="#555d66"></path><path d="M109.6 592.5v-322h107.3v321.9H109.6z m0 429.3V753.5h107.3v268.3H109.6z m912.2-804.9H431.5V109.6h590.2v107.3z m0 536.6H431.5V646.1h590.2v107.4z m-161-322H431.5V324.2h429.3v107.3z m0 536.6H431.5V860.8h429.3v107.3z m0 0" p-id="24182" fill="#555d66"></path></svg>